<?xml version="1.0" standalone="no"?>
<!DOCTYPE svg PUBLIC "-//W3C//DTD SVG 20010904//EN"
 "http://www.w3.org/TR/2001/REC-SVG-20010904/DTD/svg10.dtd">
<svg version="1.0" xmlns="http://www.w3.org/2000/svg"
 width="395.000000pt" height="395.000000pt" viewBox="0 0 395.000000 395.000000"
 preserveAspectRatio="xMidYMid meet">
<metadata>
Created by potrace 1.11, written by Peter Selinger 2001-2013
</metadata>
<g transform="translate(0.000000,395.000000) scale(0.100000,-0.100000)"
fill="#000000" stroke="none">
<path d="M1780 3944 c-379 -46 -702 -173 -997 -392 -113 -85 -300 -272 -385
-385 -189 -254 -311 -533 -371 -847 -18 -97 -21 -150 -21 -345 0 -195 3 -248
21 -345 79 -412 261 -759 552 -1051 292 -291 639 -473 1051 -552 167 -31 523
-31 690 0 412 79 759 261 1051 552 291 292 473 639 552 1051 18 97 21 150 21
345 0 195 -3 248 -21 345 -79 412 -261 759 -552 1051 -291 290 -641 475 -1046
550 -82 16 -161 22 -310 24 -110 2 -216 1 -235 -1z m54 -1082 c78 -124 277
-586 259 -602 -11 -10 -133 -54 -137 -49 -5 7 -259 604 -263 620 -4 12 10 24
49 42 29 14 56 26 60 26 4 1 19 -16 32 -37z m-918 4 c3 -8 -6 -32 -19 -53 -37
-59 -113 -213 -146 -296 -166 -422 -125 -901 114 -1330 30 -54 55 -99 55 -101
0 -10 -82 -15 -104 -6 -34 13 -141 175 -205 312 -92 193 -129 337 -137 533
-13 284 68 552 246 818 71 106 79 113 155 130 34 8 35 7 41 -7z m2241 -11 c56
-39 206 -306 261 -465 52 -148 66 -239 67 -410 0 -169 -10 -240 -57 -390 -59
-187 -226 -488 -284 -510 -23 -9 -104 -4 -104 7 0 2 20 38 44 81 94 166 167
361 203 537 28 141 25 427 -5 563 -41 184 -110 358 -206 522 -29 49 -34 65
-24 71 21 14 82 10 105 -6z m-400 -29 c7 -7 -36 -255 -62 -356 -77 -305 -198
-525 -386 -706 -135 -129 -281 -216 -474 -284 -104 -36 -297 -85 -377 -95
l-56 -7 -22 67 c-12 36 -20 68 -19 69 2 2 58 13 124 26 313 59 538 169 715
349 186 188 285 398 350 743 17 90 33 174 36 187 5 23 7 24 86 18 45 -4 83 -8
85 -11z m-1482 -70 c23 -35 235 -493 255 -551 l17 -50 -71 -27 c-38 -15 -73
-24 -77 -20 -9 9 -269 613 -269 625 0 11 80 47 107 47 13 0 29 -10 38 -24z"/>
</g>
</svg>
